<svg id="Grupo_620" data-name="Grupo 620" xmlns="http://www.w3.org/2000/svg" xmlns:xlink="http://www.w3.org/1999/xlink" width="106.002" height="106" viewBox="0 0 106.002 106">
  <defs>
    <clipPath id="clip-path">
      <rect id="Rectángulo_10" data-name="Rectángulo 10" width="106.002" height="106" fill="none"/>
    </clipPath>
  </defs>
  <g id="Grupo_326" data-name="Grupo 326" clip-path="url(#clip-path)">
    <path id="Trazado_207" data-name="Trazado 207" d="M75.609.057c11.681,1.024,22.615,9.852,26.5,20.79,2.737,7.7,1.661,15.669,1.86,23.694-3.859-.044-7.733.01-11.593,0-.378-7.4,1.3-15.042-2.242-21.863C83.63,10.162,66.4,8.444,57.286,19.09c-6.463,7.55-4.323,16.285-4.656,25.451-3.86.01-7.733-.044-11.593,0,.229-6.589-.608-13.354.762-19.825A31.808,31.808,0,0,1,65.5.814L69.192.057c2.08.133,4.365-.18,6.417,0" transform="translate(-29.654 0)" fill="#465b64"/>
    <path id="Trazado_208" data-name="Trazado 208" d="M11.384,160.988c3.86-.044,7.733.01,11.593,0q19.866-.052,39.746,0c3.86.01,7.734-.044,11.593,0,5.3.061,9.941-.571,11.363,5.919l.03,49.021a7.014,7.014,0,0,1-6.521,6.518H6.717a7.073,7.073,0,0,1-6.7-5.929L0,167.094c1.3-6.65,6-6.044,11.384-6.106" transform="translate(0 -116.447)" fill="#fea920"/>
    <path id="Trazado_209" data-name="Trazado 209" d="M180.887,257.567H111.419a3.328,3.328,0,0,1-3.319-3.319V240.113a3.328,3.328,0,0,1,3.319-3.319h69.469a3.328,3.328,0,0,1,3.319,3.319v14.135a3.328,3.328,0,0,1-3.319,3.319" transform="translate(-78.204 -171.307)" fill="#282d37"/>
    <path id="Trazado_210" data-name="Trazado 210" d="M139.484,310.159l4.716,5.3,4.409-5.967Z" transform="translate(-100.909 -223.9)" fill="#282d37"/>
    <path id="Trazado_211" data-name="Trazado 211" d="M146.321,264.122a3.459,3.459,0,1,1-3.459-3.459,3.459,3.459,0,0,1,3.459,3.459" transform="translate(-100.85 -188.575)" fill="#fff"/>
    <path id="Trazado_212" data-name="Trazado 212" d="M193.356,264.122a3.459,3.459,0,1,1-3.459-3.459,3.459,3.459,0,0,1,3.459,3.459" transform="translate(-134.877 -188.575)" fill="#fff"/>
    <path id="Trazado_213" data-name="Trazado 213" d="M240.372,264.122a3.459,3.459,0,1,1-3.459-3.459,3.459,3.459,0,0,1,3.459,3.459" transform="translate(-168.891 -188.575)" fill="#fff"/>
    <path id="Trazado_214" data-name="Trazado 214" d="M286.836,264.122a3.459,3.459,0,1,1-3.459-3.459,3.459,3.459,0,0,1,3.459,3.459" transform="translate(-202.505 -188.575)" fill="#fff"/>
    <path id="Trazado_215" data-name="Trazado 215" d="M333.892,264.122a3.459,3.459,0,1,1-3.459-3.459,3.459,3.459,0,0,1,3.459,3.459" transform="translate(-236.547 -188.575)" fill="#fff"/>
  </g>
</svg>
