<?xml version="1.0" encoding="UTF-8"?>
<svg id="Capa_2" data-name="Capa 2" xmlns="http://www.w3.org/2000/svg" viewBox="0 0 348.4 403.05">
  <defs>
    <style>
      .cls-1 {
        fill: #fdfefd;
      }

      .cls-2 {
        fill: #fea920;
      }

      .cls-3 {
        fill: #465b64;
      }

      .cls-4 {
        fill: #0387d8;
      }
    </style>
  </defs>
  <g id="Capa_1-2" data-name="Capa 1">
    <g>
      <g>
        <path class="cls-3" d="M218.69,82c6.23,11.99,7.99,24.68,8.32,37.64h41.82c-.27-14.94-1.68-29.73-6.84-44.26C247.94,35.83,208.4,3.91,166.17.21c-7.42-.65-15.69.48-23.2,0l-13.36,2.74C87.56,12.68,52.89,47.03,43.92,89.37c-4.96,23.4-1.93,47.86-2.76,71.68,13.95-.16,27.96.04,41.92,0,1.2-33.14-6.54-64.73,16.83-92.03,32.95-38.49,95.26-32.28,118.78,12.98Z"/>
        <path class="cls-2" d="M41.16,161.06c13.95-.16,27.96.04,41.92,0,47.89-.13,95.83-.13,143.72,0,13.96.04,27.96-.16,41.92,0,19.18.22,35.95-2.07,41.09,21.4l.11,177.25c-1.01,12.83-10.73,22.46-23.58,23.57H24.29c-12.7-.91-21.76-9.07-24.21-21.43l-.08-178.71c4.7-24.04,21.7-21.85,41.16-22.08Z"/>
      </g>
      <g>
        <path class="cls-4" d="M265.74,403.05h-14.37c-5.55-1.01-11.09-1.77-16.54-3.26-30.84-8.38-55.45-33.77-63.18-64.77l-2.63-14.73c.27-4.68-.36-9.75,0-14.38,6.1-77.53,103.68-111.02,156.29-52.78,49.85,55.19,13.93,144.11-59.58,149.91ZM294.39,271.27l-50.04,49.21-.52.18-.72-.34-18.37-18.44c-1.31-1.24-2.65-1.13-4.04-.17-1.74,1.21-12.63,12.11-13.84,13.85-1.03,1.48-.91,2.39-.07,3.93l34.75,35.01c2.33,1.65,3.57.69,5.45-.88l63.53-63.71c.97-1.56,1.12-2.61.06-4.15-1.49-2.14-11.07-11.6-13.31-13.33-.88-.68-1.72-1.3-2.89-1.16Z"/>
        <path class="cls-1" d="M294.39,271.27c1.17-.14,2.01.48,2.89,1.16,2.24,1.73,11.82,11.19,13.31,13.33,1.06,1.53.91,2.59-.06,4.15l-63.53,63.71c-1.89,1.57-3.12,2.53-5.45.88l-34.75-35.01c-.84-1.54-.96-2.44.07-3.93,1.21-1.74,12.1-12.64,13.84-13.85,1.39-.96,2.73-1.07,4.04.17l18.37,18.44.72.34.52-.18,50.04-49.21Z"/>
      </g>
    </g>
  </g>
</svg>