<?xml version="1.0" encoding="UTF-8"?>
<svg id="Capa_1" xmlns="http://www.w3.org/2000/svg" version="1.1" viewBox="0 0 186.4 204.3">
  <!-- Generator: Adobe Illustrator 30.2.1, SVG Export Plug-In . SVG Version: 2.1.1 Build 1)  -->
  <defs>
    <style>
      .st0 {
        fill: #e3082d;
      }
    </style>
  </defs>
  <path class="st0" d="M134.6,52c-2.9-2.9-6-5.3-9.6-7.2-6-3.1-12-3.8-18.4-1.5-3.7,1.3-6.8,3.3-10,5.8V16.1s75.1,0,75.1,0v94c0,19.6-7.5,38.3-20.7,52.6-14.2,15.5-34.1,24.6-55.1,25.3-23.9.8-46.9-9.2-62.4-27.4-11.8-13.8-18.7-31.5-18.7-49.9V16.1s75.1,0,75.1,0v50.5c-13.2,1-25,8-32.4,18.9-7.8,11.5-9.4,26.1-4.6,39,5.5,14.7,18.7,25.2,33.9,27.4,16.4,2.4,32.6-4.7,41.9-18.2,9.2-13.4,10-31.1,2-45.3s-19.8-20.7-34.2-21.8v-11.5c0-.1,0-.3.1-.3s.2.1.3.2c6.4,5.1,14.2,8.5,22.5,6.2,5.7-1.5,10.8-5,15.1-9.3Z"/>
</svg>