<?xml version="1.0" encoding="UTF-8"?>
<svg id="Capa_2" data-name="Capa 2" xmlns="http://www.w3.org/2000/svg" viewBox="0 0 709.23 990.55">
  <defs>
    <style>
      .cls-1 {
        fill: #194486;
      }

      .cls-2 {
        fill: #e3082d;
      }
    </style>
  </defs>
  <g id="Capa_1-2" data-name="Capa 1">
    <g>
      <path class="cls-2" d="M541.34,375.76c-12.89-13.21-27.31-23.97-43.45-32.29-27.15-14-54.16-17.28-83.16-6.67-16.53,5.93-30.77,14.95-45.17,26.13l-.04-149.04,339.24.02-.03,424.49c0,88.39-33.74,172.9-93.24,237.64-64.26,69.91-153.98,111.06-248.79,114.3-108,3.69-211.74-41.71-281.94-123.92C31.37,803.9.25,724.13.21,641.15l-.21-427.19,339.14-.03.03,228.05c-59.49,4.73-113,36.17-146.12,85.26-35.02,51.84-42.54,117.81-20.72,175.95,24.93,66.42,84.44,113.69,153.15,123.84,74.14,10.96,147.12-21.01,189.31-82.32,41.73-60.65,45.22-140.41,9.03-204.38-31.79-56.19-89.23-93.32-154.25-98.3l-.07-52.09c0-.65.21-1.23.6-1.31.34-.07.81.47,1.32.87,29.11,23.08,64.23,38.29,101.75,28.04,25.52-6.97,48.7-22.39,68.17-41.78Z"/>
      <g>
        <path class="cls-1" d="M169.34,78.27c-9.91-.44-18.87,6.55-18.91,16.69l-.27,61.78h-33.26s-.04-64.99-.04-64.99c.97-18.39,12.03-34.1,28.98-41.34,15.26-6.52,32.67-6.22,47.6,1.05,16.39,7.98,26.44,23.91,26.81,42.15v63.17s-33.46-.04-33.46-.04l-.05-61.78c-.85-9.42-7.6-16.25-17.39-16.69Z"/>
        <path class="cls-1" d="M72.18,48.15l33.37-.05-.25,65.4c-.07,18.38-12.39,34-29.06,41.06-14.89,6.31-31.58,6.02-46.17-.63-17.37-7.92-28.02-24.75-27.94-43.81l-.02-62.05,33.49.05.04,61.46c.64,10.01,8.2,16.95,18.13,17.03,9.73.08,18.24-7.05,18.27-17.19l.15-61.27Z"/>
        <path class="cls-1" d="M476.25,48.13l33.37-.09-.11,63.5c-.03,18.09-10.52,33.95-26.67,41.82-15.4,7.5-33.34,7.61-48.87.5-16.37-7.5-26.89-23.01-27.75-41.04V48.07s33.31.06,33.31.06l.05,60.8c.4,10.56,8.4,17.9,18.73,17.68s17.48-7.49,17.87-17.71l.07-60.77Z"/>
        <path class="cls-1" d="M331.36,78.96l-18.75.39-.05,77.42h-33.31s0-109.88,0-109.88c1.4-28.59,23.51-49.14,52.08-46.7,3.85.33,7.31,1.01,11.05,1.54l-.04,28.42c-7.02-1.67-13.66-1.71-19.95,1.06-6.79,2.98-10.62,9.25-9.62,16.87h18.57s.01,30.87.01,30.87Z"/>
        <path class="cls-1" d="M560.93,109.41c.01,6.18,2.66,11.96,7.87,14.73,5.95,3.16,12.49,3.58,19.16,3.17l-.37,27.97c-22.08,5.72-47.89,2.13-56.61-22.08-2.25-6.26-3.18-12.29-3.44-19.18V13.12s33.27,0,33.27,0l.08,34.94,19.5.05v30.97s-19.52.22-19.52.22l.06,30.1Z"/>
        <path class="cls-1" d="M634.19,110.54c0,5.68,3,11,7.73,13.58,5.89,3.21,12.51,3.53,19.09,3.21l-.11,27.95c-9.11,2.17-18.2,3.06-27.46,1.67-22.72-3.43-32.77-22.51-32.8-44.21l-.03-99.56,33.41-.07.13,34.88,19.44.12.03,31.02-19.45.12v31.3Z"/>
        <path class="cls-1" d="M370.81,92.65l-.06,64.09-33.32.05.13-70.14c.03-17.03,11.45-31.18,26.88-37.42,9.23-3.73,18.8-3.87,28.31-2.01l-.05,30.97c-10.17-1.09-21.07,2.1-21.9,14.45Z"/>
        <rect class="cls-1" x="232.26" y="48.08" width="33.19" height="108.71"/>
        <rect class="cls-1" x="674.36" y="48.08" width="33.19" height="108.71"/>
        <circle class="cls-1" cx="248.79" cy="21.1" r="18.3"/>
        <circle class="cls-1" cx="690.93" cy="21.5" r="18.29"/>
      </g>
    </g>
  </g>
</svg>